<svg width="196" height="40" viewBox="0 0 196 40" fill="none" xmlns="http://www.w3.org/2000/svg">
<g filter="url(#filter0_b_193_9084)">
<mask id="path-1-inside-1_193_9084" fill="white">
<path fill-rule="evenodd" clip-rule="evenodd" d="M0 40L0 17.0777L17.0777 0L195.556 0V20.9757L176.531 40L0 40Z"/>
</mask>
<path fill-rule="evenodd" clip-rule="evenodd" d="M0 40L0 17.0777L17.0777 0L195.556 0V20.9757L176.531 40L0 40Z" fill="black" fill-opacity="0.6"/>
<path d="M0 17.0777L-0.994369 16.0833L-1.40625 16.4952V17.0777H0ZM0 40H-1.40625V41.4062H0L0 40ZM17.0777 0V-1.40625H16.4952L16.0833 -0.994369L17.0777 0ZM195.556 0L196.962 0V-1.40625H195.556V0ZM195.556 20.9757L196.55 21.9701L196.962 21.5582V20.9757H195.556ZM176.531 40V41.4062H177.114L177.526 40.9944L176.531 40ZM-1.40625 17.0777L-1.40625 40H1.40625L1.40625 17.0777H-1.40625ZM16.0833 -0.994369L-0.994369 16.0833L0.994369 18.072L18.072 0.994369L16.0833 -0.994369ZM195.556 -1.40625L17.0777 -1.40625V1.40625L195.556 1.40625V-1.40625ZM196.962 20.9757V0L194.149 0V20.9757H196.962ZM177.526 40.9944L196.55 21.9701L194.561 19.9813L175.537 39.0056L177.526 40.9944ZM0 41.4062L176.531 41.4062V38.5937L0 38.5938L0 41.4062Z" fill="url(#paint0_radial_193_9084)" mask="url(#path-1-inside-1_193_9084)"/>
<path d="M0 17.0777L-0.994369 16.0833L-1.40625 16.4952V17.0777H0ZM0 40H-1.40625V41.4062H0L0 40ZM17.0777 0V-1.40625H16.4952L16.0833 -0.994369L17.0777 0ZM195.556 0L196.962 0V-1.40625H195.556V0ZM195.556 20.9757L196.55 21.9701L196.962 21.5582V20.9757H195.556ZM176.531 40V41.4062H177.114L177.526 40.9944L176.531 40ZM-1.40625 17.0777L-1.40625 40H1.40625L1.40625 17.0777H-1.40625ZM16.0833 -0.994369L-0.994369 16.0833L0.994369 18.072L18.072 0.994369L16.0833 -0.994369ZM195.556 -1.40625L17.0777 -1.40625V1.40625L195.556 1.40625V-1.40625ZM196.962 20.9757V0L194.149 0V20.9757H196.962ZM177.526 40.9944L196.55 21.9701L194.561 19.9813L175.537 39.0056L177.526 40.9944ZM0 41.4062L176.531 41.4062V38.5937L0 38.5938L0 41.4062Z" fill="#FFEF5A" fill-opacity="0.3" mask="url(#path-1-inside-1_193_9084)"/>
</g>
<defs>
<filter id="filter0_b_193_9084" x="-11.25" y="-11.25" width="218.056" height="62.5" filterUnits="userSpaceOnUse" color-interpolation-filters="sRGB">
<feFlood flood-opacity="0" result="BackgroundImageFix"/>
<feGaussianBlur in="BackgroundImageFix" stdDeviation="5.625"/>
<feComposite in2="SourceAlpha" operator="in" result="effect1_backgroundBlur_193_9084"/>
<feBlend mode="normal" in="SourceGraphic" in2="effect1_backgroundBlur_193_9084" result="shape"/>
</filter>
<radialGradient id="paint0_radial_193_9084" cx="0" cy="0" r="1" gradientUnits="userSpaceOnUse" gradientTransform="translate(97.7778 -5.73991) rotate(90) scale(14.8879 72.7853)">
<stop stop-color="#FF8A00"/>
<stop offset="1" stop-color="white" stop-opacity="0"/>
</radialGradient>
</defs>
</svg>
