<svg width="1683" height="1080" viewBox="0 0 1683 1080" fill="none" xmlns="http://www.w3.org/2000/svg">
<g style="mix-blend-mode:hard-light" filter="url(#filter0_f_124_29983)">
<path d="M481.787 633.115H1153.65L980.189 973.713H662.58L481.787 633.115Z" fill="url(#paint0_linear_124_29983)"/>
</g>
<g filter="url(#filter1_b_124_29983)">
<mask id="path-2-inside-1_124_29983" fill="white">
<path fill-rule="evenodd" clip-rule="evenodd" d="M499.935 22.1641L24.0332 22.1641L24.0332 1062.62H1657.04V22.1641L1185.8 22.1641L1139.14 82.8186L546.592 82.8186L499.935 22.1641Z"/>
</mask>
<path fill-rule="evenodd" clip-rule="evenodd" d="M499.935 22.1641L24.0332 22.1641L24.0332 1062.62H1657.04V22.1641L1185.8 22.1641L1139.14 82.8186L546.592 82.8186L499.935 22.1641Z" fill="white" fill-opacity="0.05"/>
<path d="M24.0332 22.1641V19.8312H21.7003V22.1641H24.0332ZM499.935 22.1641L501.784 20.7417L501.083 19.8312H499.935V22.1641ZM24.0332 1062.62H21.7003V1064.95H24.0332V1062.62ZM1657.04 1062.62V1064.95H1659.37V1062.62H1657.04ZM1657.04 22.1641H1659.37V19.8312H1657.04V22.1641ZM1185.8 22.1641V19.8312H1184.65L1183.95 20.7417L1185.8 22.1641ZM1139.14 82.8186V85.1515H1140.29L1140.99 84.241L1139.14 82.8186ZM546.592 82.8186L544.743 84.241L545.443 85.1515H546.592V82.8186ZM24.0332 24.4969L499.935 24.4969V19.8312L24.0332 19.8312V24.4969ZM26.3661 1062.62L26.3661 22.1641H21.7003L21.7003 1062.62H26.3661ZM1657.04 1060.29H24.0332V1064.95H1657.04V1060.29ZM1654.7 22.1641V1062.62H1659.37V22.1641H1654.7ZM1185.8 24.4969L1657.04 24.4969V19.8312L1185.8 19.8312V24.4969ZM1183.95 20.7417L1137.29 81.3963L1140.99 84.241L1187.65 23.5864L1183.95 20.7417ZM1139.14 80.4858L546.592 80.4858V85.1515L1139.14 85.1515V80.4858ZM548.441 81.3963L501.784 20.7417L498.085 23.5864L544.743 84.241L548.441 81.3963Z" fill="#FFEA5A" fill-opacity="0.3" mask="url(#path-2-inside-1_124_29983)"/>
<path d="M24.0332 22.1641V19.8312H21.7003V22.1641H24.0332ZM499.935 22.1641L501.784 20.7417L501.083 19.8312H499.935V22.1641ZM24.0332 1062.62H21.7003V1064.95H24.0332V1062.62ZM1657.04 1062.62V1064.95H1659.37V1062.62H1657.04ZM1657.04 22.1641H1659.37V19.8312H1657.04V22.1641ZM1185.8 22.1641V19.8312H1184.65L1183.95 20.7417L1185.8 22.1641ZM1139.14 82.8186V85.1515H1140.29L1140.99 84.241L1139.14 82.8186ZM546.592 82.8186L544.743 84.241L545.443 85.1515H546.592V82.8186ZM24.0332 24.4969L499.935 24.4969V19.8312L24.0332 19.8312V24.4969ZM26.3661 1062.62L26.3661 22.1641H21.7003L21.7003 1062.62H26.3661ZM1657.04 1060.29H24.0332V1064.95H1657.04V1060.29ZM1654.7 22.1641V1062.62H1659.37V22.1641H1654.7ZM1185.8 24.4969L1657.04 24.4969V19.8312L1185.8 19.8312V24.4969ZM1183.95 20.7417L1137.29 81.3963L1140.99 84.241L1187.65 23.5864L1183.95 20.7417ZM1139.14 80.4858L546.592 80.4858V85.1515L1139.14 85.1515V80.4858ZM548.441 81.3963L501.784 20.7417L498.085 23.5864L544.743 84.241L548.441 81.3963Z" fill="url(#paint1_radial_124_29983)" fill-opacity="0.2" mask="url(#path-2-inside-1_124_29983)"/>
</g>
<mask id="path-4-inside-2_124_29983" fill="white">
<path fill-rule="evenodd" clip-rule="evenodd" d="M1662.21 1062.36L29.2085 1062.36L29.2086 21.905L500.449 21.905L547.107 82.5599L1139.65 82.56L1186.31 21.9051L1662.21 21.9052L1662.21 1062.36Z"/>
</mask>
<path d="M29.2085 1062.36L26.8756 1062.36L26.8756 1064.7L29.2085 1064.7L29.2085 1062.36ZM1662.21 1062.36L1662.21 1064.7L1664.55 1064.7L1664.55 1062.36L1662.21 1062.36ZM29.2086 21.905L29.2086 19.5721L26.8757 19.5721L26.8757 21.905L29.2086 21.905ZM500.449 21.905L502.299 20.4827L501.598 19.5722L500.449 19.5722L500.449 21.905ZM547.107 82.5599L545.258 83.9823L545.958 84.8928L547.107 84.8928L547.107 82.5599ZM1139.65 82.56L1139.65 84.8928L1140.8 84.8928L1141.5 83.9823L1139.65 82.56ZM1186.31 21.9051L1186.31 19.5722L1185.16 19.5722L1184.46 20.4827L1186.31 21.9051ZM1662.21 21.9052L1664.55 21.9052L1664.55 19.5723L1662.21 19.5723L1662.21 21.9052ZM29.2085 1064.7L1662.21 1064.7L1662.21 1060.03L29.2085 1060.03L29.2085 1064.7ZM26.8757 21.905L26.8756 1062.36L31.5414 1062.36L31.5415 21.905L26.8757 21.905ZM500.449 19.5722L29.2086 19.5721L29.2086 24.2379L500.449 24.2379L500.449 19.5722ZM498.6 23.3274L545.258 83.9823L548.956 81.1375L502.299 20.4827L498.6 23.3274ZM547.107 84.8928L1139.65 84.8928L1139.65 80.2271L547.107 80.227L547.107 84.8928ZM1141.5 83.9823L1188.16 23.3275L1184.46 20.4827L1137.81 81.1376L1141.5 83.9823ZM1662.21 19.5723L1186.31 19.5722L1186.31 24.238L1662.21 24.238L1662.21 19.5723ZM1664.55 1062.36L1664.55 21.9052L1659.88 21.9052L1659.88 1062.36L1664.55 1062.36Z" fill="url(#paint2_radial_124_29983)" mask="url(#path-4-inside-2_124_29983)"/>
<path d="M19.8828 1062.36L1657.55 1062.36" stroke="url(#paint3_radial_124_29983)" stroke-opacity="0.3" stroke-width="2.33286" stroke-linecap="round"/>
<path d="M24.5469 1062.36L24.5469 21.9052" stroke="url(#paint4_radial_124_29983)" stroke-opacity="0.3" stroke-width="2.33286" stroke-linecap="round"/>
<path d="M1657.55 1062.36L1657.55 21.9052" stroke="url(#paint5_radial_124_29983)" stroke-opacity="0.3" stroke-width="2.33286" stroke-linecap="round"/>
<path d="M19.8828 21.9053L505.118 21.9053" stroke="url(#paint6_radial_124_29983)" stroke-opacity="0.3" stroke-width="2.33286" stroke-linecap="round"/>
<path d="M1186.31 21.9053L1475.59 21.9052" stroke="url(#paint7_radial_124_29983)" stroke-opacity="0.3" stroke-width="2.33286" stroke-linecap="round"/>
<path d="M1657.55 -1.42334V45.2339" stroke="white" stroke-opacity="0.2" stroke-width="2.33286" stroke-linecap="round"/>
<path d="M1680.88 21.9053L1634.22 21.9053" stroke="white" stroke-opacity="0.2" stroke-width="2.33286" stroke-linecap="round"/>
<path d="M1657.55 1039.03V1085.69" stroke="white" stroke-opacity="0.2" stroke-width="2.33286" stroke-linecap="round"/>
<path d="M1680.88 1062.36L1634.22 1062.36" stroke="white" stroke-opacity="0.2" stroke-width="2.33286" stroke-linecap="round"/>
<path d="M24.5488 1039.03L24.5488 1085.69" stroke="white" stroke-opacity="0.2" stroke-width="2.33286" stroke-linecap="round"/>
<path d="M47.8789 1062.36L1.22163 1062.36" stroke="white" stroke-opacity="0.2" stroke-width="2.33286" stroke-linecap="round"/>
<path d="M24.5488 -1.42334L24.5488 45.2339" stroke="white" stroke-opacity="0.2" stroke-width="2.33286" stroke-linecap="round"/>
<path d="M47.8789 21.9053L1.22163 21.9053" stroke="white" stroke-opacity="0.2" stroke-width="2.33286" stroke-linecap="round"/>
<g style="mix-blend-mode:overlay">
<ellipse cx="864.375" cy="84.8932" rx="349.93" ry="20.9958" fill="url(#paint8_radial_124_29983)"/>
</g>
<g style="mix-blend-mode:hard-light" filter="url(#filter2_f_124_29983)">
<ellipse cx="831.714" cy="84.8935" rx="354.595" ry="16.33" fill="url(#paint9_radial_124_29983)"/>
</g>
<g style="mix-blend-mode:overlay">
<ellipse cx="850.379" cy="80.2267" rx="349.93" ry="20.9958" fill="url(#paint10_radial_124_29983)"/>
</g>
<g style="mix-blend-mode:hard-light" filter="url(#filter3_f_124_29983)">
<ellipse cx="817.718" cy="91.8908" rx="354.595" ry="4.66573" fill="url(#paint11_radial_124_29983)"/>
</g>
<path d="M1634.22 1011.04V1039.03H1606.23" stroke="#B1883D" stroke-width="4.66573"/>
<path d="M75.8691 45.2339L47.8748 45.2339L47.8748 73.2282" stroke="#B1883D" stroke-width="4.66573"/>
<path d="M1606.22 45.2339L1634.22 45.2339L1634.22 73.2282" stroke="#B1883D" stroke-width="4.66573"/>
<defs>
<filter id="filter0_f_124_29983" x="136.523" y="287.851" width="1362.39" height="1031.13" filterUnits="userSpaceOnUse" color-interpolation-filters="sRGB">
<feFlood flood-opacity="0" result="BackgroundImageFix"/>
<feBlend mode="normal" in="SourceGraphic" in2="BackgroundImageFix" result="shape"/>
<feGaussianBlur stdDeviation="172.632" result="effect1_foregroundBlur_124_29983"/>
</filter>
<filter id="filter1_b_124_29983" x="-263.168" y="-265.037" width="2207.41" height="1614.86" filterUnits="userSpaceOnUse" color-interpolation-filters="sRGB">
<feFlood flood-opacity="0" result="BackgroundImageFix"/>
<feGaussianBlur in="BackgroundImageFix" stdDeviation="143.601"/>
<feComposite in2="SourceAlpha" operator="in" result="effect1_backgroundBlur_124_29983"/>
<feBlend mode="normal" in="SourceGraphic" in2="effect1_backgroundBlur_124_29983" result="shape"/>
</filter>
<filter id="filter2_f_124_29983" x="435.128" y="26.5719" width="793.174" height="116.643" filterUnits="userSpaceOnUse" color-interpolation-filters="sRGB">
<feFlood flood-opacity="0" result="BackgroundImageFix"/>
<feBlend mode="normal" in="SourceGraphic" in2="BackgroundImageFix" result="shape"/>
<feGaussianBlur stdDeviation="20.9958" result="effect1_foregroundBlur_124_29983"/>
</filter>
<filter id="filter3_f_124_29983" x="421.132" y="45.2336" width="793.174" height="93.3146" filterUnits="userSpaceOnUse" color-interpolation-filters="sRGB">
<feFlood flood-opacity="0" result="BackgroundImageFix"/>
<feBlend mode="normal" in="SourceGraphic" in2="BackgroundImageFix" result="shape"/>
<feGaussianBlur stdDeviation="20.9958" result="effect1_foregroundBlur_124_29983"/>
</filter>
<linearGradient id="paint0_linear_124_29983" x1="817.719" y1="633.115" x2="817.719" y2="973.713" gradientUnits="userSpaceOnUse">
<stop stop-color="#F3CB63" stop-opacity="0"/>
<stop offset="1" stop-color="#F3C263"/>
</linearGradient>
<radialGradient id="paint1_radial_124_29983" cx="0" cy="0" r="1" gradientUnits="userSpaceOnUse" gradientTransform="translate(840.535 542.393) rotate(90) scale(520.229 816.502)">
<stop stop-color="#FF8A00"/>
<stop offset="1" stop-color="white" stop-opacity="0"/>
</radialGradient>
<radialGradient id="paint2_radial_124_29983" cx="0" cy="0" r="1" gradientUnits="userSpaceOnUse" gradientTransform="translate(845.71 1211.67) rotate(-90) scale(387.255 607.8)">
<stop stop-color="#FF8A00"/>
<stop offset="1" stop-color="white" stop-opacity="0"/>
</radialGradient>
<radialGradient id="paint3_radial_124_29983" cx="0" cy="0" r="1" gradientUnits="userSpaceOnUse" gradientTransform="translate(841.052 997.362) rotate(90) scale(172 281679)">
<stop stop-color="white"/>
<stop offset="0.505334" stop-color="white" stop-opacity="0"/>
</radialGradient>
<radialGradient id="paint4_radial_124_29983" cx="0" cy="0" r="1" gradientUnits="userSpaceOnUse" gradientTransform="translate(-40.4531 540.651) scale(172 178959)">
<stop stop-color="white"/>
<stop offset="0.505334" stop-color="white" stop-opacity="0"/>
</radialGradient>
<radialGradient id="paint5_radial_124_29983" cx="0" cy="0" r="1" gradientUnits="userSpaceOnUse" gradientTransform="translate(1592.55 540.651) scale(172 178959)">
<stop stop-color="white"/>
<stop offset="0.505334" stop-color="white" stop-opacity="0"/>
</radialGradient>
<radialGradient id="paint6_radial_124_29983" cx="0" cy="0" r="1" gradientUnits="userSpaceOnUse" gradientTransform="translate(263.192 -43.0947) rotate(90) scale(172 83460.5)">
<stop stop-color="white"/>
<stop offset="0.505334" stop-color="white" stop-opacity="0"/>
</radialGradient>
<radialGradient id="paint7_radial_124_29983" cx="0" cy="0" r="1" gradientUnits="userSpaceOnUse" gradientTransform="translate(1331.36 -43.0948) rotate(90) scale(172 49755.3)">
<stop stop-color="white"/>
<stop offset="0.505334" stop-color="white" stop-opacity="0"/>
</radialGradient>
<radialGradient id="paint8_radial_124_29983" cx="0" cy="0" r="1" gradientUnits="userSpaceOnUse" gradientTransform="translate(864.375 84.8932) rotate(90) scale(20.9958 349.93)">
<stop stop-color="#FFC076"/>
<stop offset="1" stop-color="#FFC076" stop-opacity="0"/>
</radialGradient>
<radialGradient id="paint9_radial_124_29983" cx="0" cy="0" r="1" gradientUnits="userSpaceOnUse" gradientTransform="translate(831.714 84.8935) rotate(90) scale(16.33 354.595)">
<stop stop-color="#FFC076"/>
<stop offset="1" stop-color="#FFC076" stop-opacity="0"/>
</radialGradient>
<radialGradient id="paint10_radial_124_29983" cx="0" cy="0" r="1" gradientUnits="userSpaceOnUse" gradientTransform="translate(850.379 80.2267) rotate(90) scale(20.9958 349.93)">
<stop stop-color="#E8BA15"/>
<stop offset="1" stop-color="#E8BA15" stop-opacity="0"/>
</radialGradient>
<radialGradient id="paint11_radial_124_29983" cx="0" cy="0" r="1" gradientUnits="userSpaceOnUse" gradientTransform="translate(817.718 91.8908) rotate(90) scale(4.66573 354.595)">
<stop stop-color="#E8BA15"/>
<stop offset="1" stop-color="#E8BA15" stop-opacity="0"/>
</radialGradient>
</defs>
</svg>
