<svg width="395" height="99" viewBox="0 0 395 99" fill="none" xmlns="http://www.w3.org/2000/svg">
<g filter="url(#filter0_b_132_2572)">
<mask id="path-1-inside-1_132_2572" fill="white">
<path fill-rule="evenodd" clip-rule="evenodd" d="M0.75 98.4375L0.75 38.5364L39.2864 0L394.5 0V62.0142L358.077 98.4375L0.75 98.4375ZM393.664 98.4375H394.5V97.6016L393.664 98.4375Z"/>
</mask>
<path fill-rule="evenodd" clip-rule="evenodd" d="M0.75 98.4375L0.75 38.5364L39.2864 0L394.5 0V62.0142L358.077 98.4375L0.75 98.4375ZM393.664 98.4375H394.5V97.6016L393.664 98.4375Z" fill="black" fill-opacity="0.6"/>
<path d="M0.75 38.5364L-0.244369 37.542L-0.65625 37.9539L-0.65625 38.5364H0.75ZM0.75 98.4375H-0.65625L-0.65625 99.8438H0.75L0.75 98.4375ZM39.2864 0V-1.40625L38.7039 -1.40625L38.292 -0.994369L39.2864 0ZM394.5 0L395.906 0V-1.40625H394.5V0ZM394.5 62.0142L395.494 63.0085L395.906 62.5966V62.0142H394.5ZM358.077 98.4375V99.8437H358.659L359.071 99.4319L358.077 98.4375ZM393.664 98.4375L392.67 97.4431L390.269 99.8437H393.664V98.4375ZM394.5 98.4375V99.8437H395.906V98.4375H394.5ZM394.5 97.6016H395.906V94.2066L393.506 96.6073L394.5 97.6016ZM-0.65625 38.5364L-0.65625 98.4375H2.15625L2.15625 38.5364H-0.65625ZM38.292 -0.994369L-0.244369 37.542L1.74437 39.5307L40.2807 0.994369L38.292 -0.994369ZM394.5 -1.40625L39.2864 -1.40625V1.40625L394.5 1.40625V-1.40625ZM395.906 62.0142V0L393.094 0V62.0142H395.906ZM359.071 99.4319L395.494 63.0085L393.506 61.0198L357.082 97.4431L359.071 99.4319ZM0.75 99.8438L358.077 99.8437V97.0312L0.75 97.0312L0.75 99.8438ZM393.664 99.8437H394.5V97.0312H393.664V99.8437ZM395.906 98.4375V97.6016H393.094V98.4375H395.906ZM393.506 96.6073L392.67 97.4431L394.658 99.4319L395.494 98.596L393.506 96.6073Z" fill="url(#paint0_radial_132_2572)" mask="url(#path-1-inside-1_132_2572)"/>
<path d="M0.75 38.5364L-0.244369 37.542L-0.65625 37.9539L-0.65625 38.5364H0.75ZM0.75 98.4375H-0.65625L-0.65625 99.8438H0.75L0.75 98.4375ZM39.2864 0V-1.40625L38.7039 -1.40625L38.292 -0.994369L39.2864 0ZM394.5 0L395.906 0V-1.40625H394.5V0ZM394.5 62.0142L395.494 63.0085L395.906 62.5966V62.0142H394.5ZM358.077 98.4375V99.8437H358.659L359.071 99.4319L358.077 98.4375ZM393.664 98.4375L392.67 97.4431L390.269 99.8437H393.664V98.4375ZM394.5 98.4375V99.8437H395.906V98.4375H394.5ZM394.5 97.6016H395.906V94.2066L393.506 96.6073L394.5 97.6016ZM-0.65625 38.5364L-0.65625 98.4375H2.15625L2.15625 38.5364H-0.65625ZM38.292 -0.994369L-0.244369 37.542L1.74437 39.5307L40.2807 0.994369L38.292 -0.994369ZM394.5 -1.40625L39.2864 -1.40625V1.40625L394.5 1.40625V-1.40625ZM395.906 62.0142V0L393.094 0V62.0142H395.906ZM359.071 99.4319L395.494 63.0085L393.506 61.0198L357.082 97.4431L359.071 99.4319ZM0.75 99.8438L358.077 99.8437V97.0312L0.75 97.0312L0.75 99.8438ZM393.664 99.8437H394.5V97.0312H393.664V99.8437ZM395.906 98.4375V97.6016H393.094V98.4375H395.906ZM393.506 96.6073L392.67 97.4431L394.658 99.4319L395.494 98.596L393.506 96.6073Z" fill="#FFEF5A" fill-opacity="0.3" mask="url(#path-1-inside-1_132_2572)"/>
</g>
<g filter="url(#filter1_b_132_2572)">
<mask id="path-3-inside-2_132_2572" fill="white">
<path fill-rule="evenodd" clip-rule="evenodd" d="M12 87.1875L12 43.6709L44.4209 11.25L383.25 11.25V51.0718L347.134 87.1875L12 87.1875Z"/>
</mask>
<path fill-rule="evenodd" clip-rule="evenodd" d="M12 87.1875L12 43.6709L44.4209 11.25L383.25 11.25V51.0718L347.134 87.1875L12 87.1875Z" fill="black" fill-opacity="0.2"/>
<path d="M12 43.6709L11.0056 42.6765L10.5938 43.0884V43.6709H12ZM12 87.1875H10.5938V88.5938H12V87.1875ZM44.4209 11.25V9.84375H43.8384L43.4265 10.2556L44.4209 11.25ZM383.25 11.25H384.656V9.84375H383.25V11.25ZM383.25 51.0718L384.244 52.0661L384.656 51.6543V51.0718H383.25ZM347.134 87.1875V88.5937H347.717L348.129 88.1819L347.134 87.1875ZM10.5938 43.6709L10.5938 87.1875H13.4063L13.4063 43.6709H10.5938ZM43.4265 10.2556L11.0056 42.6765L12.9944 44.6653L45.4153 12.2444L43.4265 10.2556ZM383.25 9.84375L44.4209 9.84375V12.6562L383.25 12.6562V9.84375ZM384.656 51.0718V11.25H381.844V51.0718H384.656ZM348.129 88.1819L384.244 52.0661L382.256 50.0774L346.14 86.1931L348.129 88.1819ZM12 88.5938L347.134 88.5937V85.7812L12 85.7812V88.5938Z" fill="url(#paint1_radial_132_2572)" mask="url(#path-3-inside-2_132_2572)"/>
<path d="M12 43.6709L11.0056 42.6765L10.5938 43.0884V43.6709H12ZM12 87.1875H10.5938V88.5938H12V87.1875ZM44.4209 11.25V9.84375H43.8384L43.4265 10.2556L44.4209 11.25ZM383.25 11.25H384.656V9.84375H383.25V11.25ZM383.25 51.0718L384.244 52.0661L384.656 51.6543V51.0718H383.25ZM347.134 87.1875V88.5937H347.717L348.129 88.1819L347.134 87.1875ZM10.5938 43.6709L10.5938 87.1875H13.4063L13.4063 43.6709H10.5938ZM43.4265 10.2556L11.0056 42.6765L12.9944 44.6653L45.4153 12.2444L43.4265 10.2556ZM383.25 9.84375L44.4209 9.84375V12.6562L383.25 12.6562V9.84375ZM384.656 51.0718V11.25H381.844V51.0718H384.656ZM348.129 88.1819L384.244 52.0661L382.256 50.0774L346.14 86.1931L348.129 88.1819ZM12 88.5938L347.134 88.5937V85.7812L12 85.7812V88.5938Z" fill="#FFDB5A" fill-opacity="0.3" mask="url(#path-3-inside-2_132_2572)"/>
</g>
<defs>
<filter id="filter0_b_132_2572" x="-10.5" y="-11.25" width="416.25" height="120.938" filterUnits="userSpaceOnUse" color-interpolation-filters="sRGB">
<feFlood flood-opacity="0" result="BackgroundImageFix"/>
<feGaussianBlur in="BackgroundImageFix" stdDeviation="5.625"/>
<feComposite in2="SourceAlpha" operator="in" result="effect1_backgroundBlur_132_2572"/>
<feBlend mode="normal" in="SourceGraphic" in2="effect1_backgroundBlur_132_2572" result="shape"/>
</filter>
<filter id="filter1_b_132_2572" x="0.75" y="0" width="393.75" height="98.4375" filterUnits="userSpaceOnUse" color-interpolation-filters="sRGB">
<feFlood flood-opacity="0" result="BackgroundImageFix"/>
<feGaussianBlur in="BackgroundImageFix" stdDeviation="5.625"/>
<feComposite in2="SourceAlpha" operator="in" result="effect1_backgroundBlur_132_2572"/>
<feBlend mode="normal" in="SourceGraphic" in2="effect1_backgroundBlur_132_2572" result="shape"/>
</filter>
<radialGradient id="paint0_radial_132_2572" cx="0" cy="0" r="1" gradientUnits="userSpaceOnUse" gradientTransform="translate(197.625 -14.1256) rotate(90) scale(36.6382 146.553)">
<stop stop-color="#FF8A00"/>
<stop offset="1" stop-color="white" stop-opacity="0"/>
</radialGradient>
<radialGradient id="paint1_radial_132_2572" cx="0" cy="0" r="1" gradientUnits="userSpaceOnUse" gradientTransform="translate(189.187 -4.4773) rotate(90) scale(33.4978 133.991)">
<stop stop-color="#FF8A00"/>
<stop offset="1" stop-color="white" stop-opacity="0"/>
</radialGradient>
</defs>
</svg>
