<svg width="192" height="116" viewBox="0 0 192 116" fill="none" xmlns="http://www.w3.org/2000/svg">
<g opacity="0.8" filter="url(#filter0_b_382_16443)">
<rect x="0.00976562" y="0.800781" width="191.7" height="115.2" fill="black"/>
<rect x="0.712891" y="1.50391" width="190.294" height="113.794" stroke="white" stroke-opacity="0.3" stroke-width="1.40625"/>
<path d="M48.1938 50V36H50.9938V47.6H55.7738V50H48.1938ZM65.6189 44V47.6H71.1989V50H62.8189V36H71.1989V38.4H65.6189V41.6H69.9989V44H65.6189ZM85.1155 36L90.1155 50H87.3555L86.2955 46.98H81.0555L79.9955 50H77.2355L82.2355 36H85.1155ZM83.6555 39.52L81.8955 44.58H85.4355L83.6955 39.52H83.6555ZM101.952 45.1V42.7H107.052V48.76L104.732 50.1H99.072L96.752 48.76V37.24L99.072 35.9H104.732L107.052 37.24V40.1H104.252V38.3H99.552V47.7H104.252V45.1H101.952ZM123.193 36H125.993V48.76L123.673 50.1H117.413L115.093 48.76V36H117.893V47.5H123.193V36ZM137.03 44V47.6H142.61V50H134.23V36H142.61V38.4H137.03V41.6H141.41V44H137.03ZM63.6267 69.94V79H60.8267V65H63.4467L69.4867 74.06H69.5267V65H72.3267V79H69.7067L63.6667 69.94H63.6267ZM87.0491 65L92.0491 79H89.2891L88.2291 75.98H82.9891L81.9291 79H79.1691L84.1691 65H87.0491ZM85.5891 68.52L83.8291 73.58H87.3691L85.6291 68.52H85.5891ZM110.666 79V69.76H110.626L107.466 79H104.806L101.626 69.64H101.586V79H98.8856V65H102.606L106.126 75.3H106.166L109.666 65H113.366V79H110.666ZM124.397 73V76.6H129.977V79H121.597V65H129.977V67.4H124.397V70.6H128.777V73H124.397Z" fill="#FFECB2" fill-opacity="0.2"/>
</g>
<defs>
<filter id="filter0_b_382_16443" x="-11.2402" y="-10.4492" width="214.199" height="137.699" filterUnits="userSpaceOnUse" color-interpolation-filters="sRGB">
<feFlood flood-opacity="0" result="BackgroundImageFix"/>
<feGaussianBlur in="BackgroundImageFix" stdDeviation="5.625"/>
<feComposite in2="SourceAlpha" operator="in" result="effect1_backgroundBlur_382_16443"/>
<feBlend mode="normal" in="SourceGraphic" in2="effect1_backgroundBlur_382_16443" result="shape"/>
</filter>
</defs>
</svg>
