<svg width="401" height="96" viewBox="0 0 401 96" fill="none" xmlns="http://www.w3.org/2000/svg">
<g filter="url(#filter0_b_382_16414)">
<rect x="0.648438" width="400" height="96" fill="black" fill-opacity="0.8"/>
<rect x="1.35156" y="0.703125" width="398.594" height="94.5938" stroke="white" stroke-opacity="0.3" stroke-width="1.40625"/>
<circle cx="352.5" cy="47.5" r="34.5" fill="white" fill-opacity="0.2"/>
<path d="M187.058 43.392L184.274 45H173.978V28.2H184.274L187.058 29.808V43.392ZM177.338 31.08V42.12H183.698V31.08H177.338ZM204.718 28.2L210.718 45H207.406L206.134 41.376H199.846L198.574 45H195.262L201.262 28.2H204.718ZM202.966 32.424L200.854 38.496H205.102L203.014 32.424H202.966ZM221.213 45V37.824L215.813 28.2H219.461L222.869 34.488H222.917L226.349 28.2H229.997L224.573 37.848V45H221.213Z" fill="white" fill-opacity="0.2"/>
<path d="M171.246 73.14C170.63 73.14 170.116 73.014 169.706 72.762C169.304 72.5007 169.001 72.1413 168.796 71.684C168.59 71.2173 168.464 70.676 168.418 70.06L169.356 69.78C169.402 70.2467 169.486 70.6713 169.608 71.054C169.729 71.4273 169.92 71.726 170.182 71.95C170.443 72.1647 170.802 72.272 171.26 72.272C171.764 72.272 172.156 72.1413 172.436 71.88C172.716 71.6187 172.856 71.2033 172.856 70.634C172.856 70.13 172.73 69.696 172.478 69.332C172.235 68.968 171.899 68.5853 171.47 68.184L169.468 66.266C169.113 65.9207 168.852 65.566 168.684 65.202C168.516 64.8287 168.432 64.4227 168.432 63.984C168.432 63.2 168.665 62.598 169.132 62.178C169.598 61.758 170.219 61.548 170.994 61.548C171.395 61.548 171.754 61.5993 172.072 61.702C172.398 61.8047 172.674 61.9727 172.898 62.206C173.131 62.43 173.313 62.724 173.444 63.088C173.574 63.452 173.663 63.8953 173.71 64.418L172.8 64.656C172.762 64.18 172.683 63.774 172.562 63.438C172.45 63.0927 172.268 62.8313 172.016 62.654C171.773 62.4767 171.432 62.388 170.994 62.388C170.527 62.388 170.144 62.5093 169.846 62.752C169.547 62.9947 169.398 63.3727 169.398 63.886C169.398 64.194 169.454 64.474 169.566 64.726C169.687 64.978 169.897 65.2487 170.196 65.538L172.198 67.428C172.646 67.848 173.033 68.3147 173.36 68.828C173.686 69.3413 173.85 69.92 173.85 70.564C173.85 71.1333 173.738 71.6093 173.514 71.992C173.299 72.3747 172.996 72.664 172.604 72.86C172.212 73.0467 171.759 73.14 171.246 73.14ZM180.065 73V62.486H177.923V61.66H183.215V62.486H181.129V73H180.065ZM186.687 73L189.081 61.66H190.201L192.609 73H191.559L190.999 69.962H188.297L187.723 73H186.687ZM188.451 69.192H190.859L189.655 63.074L188.451 69.192ZM197.363 73V61.66H199.827C200.62 61.66 201.236 61.8 201.675 62.08C202.123 62.3507 202.44 62.738 202.627 63.242C202.814 63.746 202.907 64.3293 202.907 64.992V69.5C202.907 70.2 202.814 70.816 202.627 71.348C202.44 71.8707 202.132 72.2767 201.703 72.566C201.274 72.8553 200.681 73 199.925 73H197.363ZM198.427 72.202H199.855C200.452 72.202 200.891 72.0807 201.171 71.838C201.451 71.586 201.628 71.2453 201.703 70.816C201.778 70.3773 201.815 69.8827 201.815 69.332V65.104C201.815 64.5347 201.764 64.0587 201.661 63.676C201.568 63.284 201.376 62.99 201.087 62.794C200.807 62.5887 200.382 62.486 199.813 62.486H198.427V72.202ZM208.08 73V61.66H209.144V73H208.08ZM217.315 73.14C216.55 73.14 215.953 73.0047 215.523 72.734C215.103 72.454 214.814 72.0713 214.655 71.586C214.497 71.0913 214.417 70.5313 214.417 69.906V61.66H215.453V69.934C215.453 70.3727 215.5 70.774 215.593 71.138C215.696 71.4927 215.883 71.7727 216.153 71.978C216.424 72.1833 216.811 72.286 217.315 72.286C217.801 72.286 218.179 72.1833 218.449 71.978C218.72 71.7633 218.907 71.4787 219.009 71.124C219.121 70.7693 219.177 70.3727 219.177 69.934V61.66H220.199V69.906C220.199 70.5313 220.115 71.0913 219.947 71.586C219.779 72.0713 219.485 72.454 219.065 72.734C218.645 73.0047 218.062 73.14 217.315 73.14ZM225.353 73L225.633 61.66H226.697L228.937 71.502L231.219 61.66H232.283L232.563 73L231.681 73L231.457 63.97L229.287 73H228.601L226.459 63.984L226.235 73H225.353Z" fill="white" fill-opacity="0.2"/>
<circle cx="48.5" cy="48.5" r="34.5" fill="white" fill-opacity="0.2"/>
</g>
<defs>
<filter id="filter0_b_382_16414" x="-10.6016" y="-11.25" width="422.5" height="118.5" filterUnits="userSpaceOnUse" color-interpolation-filters="sRGB">
<feFlood flood-opacity="0" result="BackgroundImageFix"/>
<feGaussianBlur in="BackgroundImageFix" stdDeviation="5.625"/>
<feComposite in2="SourceAlpha" operator="in" result="effect1_backgroundBlur_382_16414"/>
<feBlend mode="normal" in="SourceGraphic" in2="effect1_backgroundBlur_382_16414" result="shape"/>
</filter>
</defs>
</svg>
