<svg width="1462" height="1173" viewBox="0 0 1462 973" preserveAspectRatio="none" fill="none" xmlns="http://www.w3.org/2000/svg">
<g style="mix-blend-mode:hard-light" filter="url(#filter0_f_188_9481)">
<path d="M419.15 577.1H1002.35L851.779 872.75H576.084L419.15 577.1Z" fill="url(#paint0_linear_188_9481)"/>
</g>
<g filter="url(#filter1_b_188_9481)">
<mask id="path-2-inside-1_188_9481" fill="white">
<path fill-rule="evenodd" clip-rule="evenodd" d="M434.9 46.7744L21.8 46.7744L21.8 949.924L1439.3 949.924V46.7744L1030.25 46.7744L989.75 99.4245L475.4 99.4245L434.9 46.7744Z"/>
</mask>
<path fill-rule="evenodd" clip-rule="evenodd" d="M434.9 46.7744L21.8 46.7744L21.8 949.924L1439.3 949.924V46.7744L1030.25 46.7744L989.75 99.4245L475.4 99.4245L434.9 46.7744Z" fill="white" fill-opacity="0.05"/>
<path d="M21.8 46.7744V44.7494H19.775V46.7744H21.8ZM434.9 46.7744L436.505 45.5398L435.897 44.7494H434.9V46.7744ZM21.8 949.924H19.775V951.949H21.8V949.924ZM1439.3 949.924V951.949H1441.33V949.924H1439.3ZM1439.3 46.7744H1441.33V44.7494H1439.3V46.7744ZM1030.25 46.7744V44.7494H1029.25L1028.64 45.5398L1030.25 46.7744ZM989.75 99.4245V101.45H990.747L991.355 100.659L989.75 99.4245ZM475.4 99.4245L473.795 100.659L474.403 101.45H475.4V99.4245ZM21.8 48.7994L434.9 48.7994V44.7494L21.8 44.7494V48.7994ZM23.825 949.924L23.825 46.7744H19.775L19.775 949.924H23.825ZM1439.3 947.899L21.8 947.899V951.949L1439.3 951.949V947.899ZM1437.28 46.7744V949.924H1441.33V46.7744H1437.28ZM1030.25 48.7994L1439.3 48.7994V44.7494L1030.25 44.7494V48.7994ZM1028.64 45.5398L988.145 98.1899L991.355 100.659L1031.85 48.0091L1028.64 45.5398ZM989.75 97.3995L475.4 97.3995V101.45L989.75 101.45V97.3995ZM477.005 98.1899L436.505 45.5398L433.295 48.0091L473.795 100.659L477.005 98.1899Z" fill="#FFEA5A" fill-opacity="0.3" mask="url(#path-2-inside-1_188_9481)"/>
<path d="M21.8 46.7744V44.7494H19.775V46.7744H21.8ZM434.9 46.7744L436.505 45.5398L435.897 44.7494H434.9V46.7744ZM21.8 949.924H19.775V951.949H21.8V949.924ZM1439.3 949.924V951.949H1441.33V949.924H1439.3ZM1439.3 46.7744H1441.33V44.7494H1439.3V46.7744ZM1030.25 46.7744V44.7494H1029.25L1028.64 45.5398L1030.25 46.7744ZM989.75 99.4245V101.45H990.747L991.355 100.659L989.75 99.4245ZM475.4 99.4245L473.795 100.659L474.403 101.45H475.4V99.4245ZM21.8 48.7994L434.9 48.7994V44.7494L21.8 44.7494V48.7994ZM23.825 949.924L23.825 46.7744H19.775L19.775 949.924H23.825ZM1439.3 947.899L21.8 947.899V951.949L1439.3 951.949V947.899ZM1437.28 46.7744V949.924H1441.33V46.7744H1437.28ZM1030.25 48.7994L1439.3 48.7994V44.7494L1030.25 44.7494V48.7994ZM1028.64 45.5398L988.145 98.1899L991.355 100.659L1031.85 48.0091L1028.64 45.5398ZM989.75 97.3995L475.4 97.3995V101.45L989.75 101.45V97.3995ZM477.005 98.1899L436.505 45.5398L433.295 48.0091L473.795 100.659L477.005 98.1899Z" fill="url(#paint1_radial_188_9481)" fill-opacity="0.2" mask="url(#path-2-inside-1_188_9481)"/>
</g>
<mask id="path-4-inside-2_188_9481" fill="white">
<path fill-rule="evenodd" clip-rule="evenodd" d="M1443.8 949.7L26.3 949.7L26.3001 46.55L435.35 46.5501L475.85 99.2002L990.2 99.2002L1030.7 46.5501L1443.8 46.5502L1443.8 949.7Z"/>
</mask>
<path d="M26.3 949.7L24.275 949.7L24.275 951.725L26.3 951.725L26.3 949.7ZM1443.8 949.7L1443.8 951.725L1445.83 951.725L1445.83 949.7L1443.8 949.7ZM26.3001 46.55L26.3001 44.525L24.2751 44.525L24.2751 46.55L26.3001 46.55ZM435.35 46.5501L436.955 45.3154L436.347 44.5251L435.35 44.5251L435.35 46.5501ZM475.85 99.2002L474.245 100.435L474.853 101.225L475.85 101.225L475.85 99.2002ZM990.2 99.2002L990.2 101.225L991.198 101.225L991.805 100.435L990.2 99.2002ZM1030.7 46.5501L1030.7 44.5251L1029.7 44.5251L1029.1 45.3155L1030.7 46.5501ZM1443.8 46.5502L1445.83 46.5502L1445.83 44.5252L1443.8 44.5252L1443.8 46.5502ZM26.3 951.725L1443.8 951.725L1443.8 947.675L26.3 947.675L26.3 951.725ZM24.2751 46.55L24.275 949.7L28.325 949.7L28.3251 46.55L24.2751 46.55ZM435.35 44.5251L26.3001 44.525L26.3001 48.575L435.35 48.5751L435.35 44.5251ZM433.745 47.7847L474.245 100.435L477.455 97.9655L436.955 45.3154L433.745 47.7847ZM475.85 101.225L990.2 101.225L990.2 97.1752L475.85 97.1752L475.85 101.225ZM991.805 100.435L1032.31 47.7848L1029.1 45.3155L988.595 97.9656L991.805 100.435ZM1443.8 44.5252L1030.7 44.5251L1030.7 48.5751L1443.8 48.5752L1443.8 44.5252ZM1445.83 949.7L1445.83 46.5502L1441.78 46.5502L1441.78 949.7L1445.83 949.7Z" fill="url(#paint2_radial_188_9481)" mask="url(#path-4-inside-2_188_9481)"/>
<path d="M18.2 949.7L1439.75 949.7" stroke="url(#paint3_radial_188_9481)" stroke-opacity="0.3" stroke-width="2.025" stroke-linecap="round"/>
<path d="M22.25 949.7L22.25 46.5502" stroke="url(#paint4_radial_188_9481)" stroke-opacity="0.3" stroke-width="2.025" stroke-linecap="round"/>
<path d="M1439.75 949.7L1439.75 46.5502" stroke="url(#paint5_radial_188_9481)" stroke-opacity="0.3" stroke-width="2.025" stroke-linecap="round"/>
<path d="M18.2 46.5498L439.4 46.5498" stroke="url(#paint6_radial_188_9481)" stroke-opacity="0.3" stroke-width="2.025" stroke-linecap="round"/>
<path d="M1030.7 46.5498L1281.8 46.5498" stroke="url(#paint7_radial_188_9481)" stroke-opacity="0.3" stroke-width="2.025" stroke-linecap="round"/>
<path d="M1439.75 26.2998V66.7998" stroke="white" stroke-opacity="0.2" stroke-width="2.025" stroke-linecap="round"/>
<path d="M1460 46.5498L1419.5 46.5498" stroke="white" stroke-opacity="0.2" stroke-width="2.025" stroke-linecap="round"/>
<path d="M1439.75 929.45V969.95" stroke="white" stroke-opacity="0.2" stroke-width="2.025" stroke-linecap="round"/>
<path d="M1460 949.7L1419.5 949.7" stroke="white" stroke-opacity="0.2" stroke-width="2.025" stroke-linecap="round"/>
<path d="M22.25 929.45L22.25 969.95" stroke="white" stroke-opacity="0.2" stroke-width="2.025" stroke-linecap="round"/>
<path d="M42.5 949.7L2 949.7" stroke="white" stroke-opacity="0.2" stroke-width="2.025" stroke-linecap="round"/>
<path d="M22.25 26.2998L22.25 66.7998" stroke="white" stroke-opacity="0.2" stroke-width="2.025" stroke-linecap="round"/>
<path d="M42.5 46.5498L2 46.5498" stroke="white" stroke-opacity="0.2" stroke-width="2.025" stroke-linecap="round"/>
<g style="mix-blend-mode:overlay">
<ellipse cx="751.251" cy="101.225" rx="303.75" ry="18.225" fill="url(#paint8_radial_188_9481)"/>
</g>
<g style="mix-blend-mode:hard-light" filter="url(#filter2_f_188_9481)">
<ellipse cx="722.9" cy="101.225" rx="307.8" ry="14.175" fill="url(#paint9_radial_188_9481)"/>
</g>
<g style="mix-blend-mode:overlay">
<ellipse cx="739.1" cy="97.1752" rx="303.75" ry="18.225" fill="url(#paint10_radial_188_9481)"/>
</g>
<g style="mix-blend-mode:hard-light" filter="url(#filter3_f_188_9481)">
<ellipse cx="710.75" cy="107.3" rx="307.8" ry="4.05" fill="url(#paint11_radial_188_9481)"/>
</g>
<path d="M437.375 48.575L483.95 2L984.125 2L1030.7 48.575" stroke="#FAD053" stroke-width="2.025" stroke-linecap="round"/>
<path fill-rule="evenodd" clip-rule="evenodd" d="M496.1 18.2002H516.35L483.95 50.6002L516.35 83.0002H496.1L463.7 50.6002L496.1 18.2002ZM528.5 18.2002H548.75L516.35 50.6002L548.75 83.0002H528.5L496.1 50.6002L528.5 18.2002ZM581.15 18.2002H560.9L528.5 50.6002L560.9 83.0002L581.15 83.0002L548.75 50.6002L581.15 18.2002Z" fill="url(#paint12_linear_188_9481)"/>
<path fill-rule="evenodd" clip-rule="evenodd" d="M965.9 18.2002H945.65L978.05 50.6002L945.65 83.0002H965.9L998.3 50.6002L965.9 18.2002ZM933.5 18.2002H913.25L945.65 50.6002L913.25 83.0002H933.5L965.9 50.6002L933.5 18.2002ZM880.85 18.2002H901.1L933.5 50.6002L901.1 83.0002L880.85 83.0002L913.25 50.6002L880.85 18.2002Z" fill="url(#paint13_linear_188_9481)"/>
<path d="M1419.5 905.15V929.45H1395.2" stroke="#B1883D" stroke-width="4.05"/>
<path d="M66.8 66.7998L42.5 66.7998L42.5 91.0998" stroke="#B1883D" stroke-width="4.05"/>
<path d="M1395.2 66.7998L1419.5 66.7998L1419.5 91.0998" stroke="#B1883D" stroke-width="4.05"/>
<defs>
<filter id="filter0_f_188_9481" x="119.45" y="277.4" width="1182.6" height="895.05" filterUnits="userSpaceOnUse" color-interpolation-filters="sRGB">
<feFlood flood-opacity="0" result="BackgroundImageFix"/>
<feBlend mode="normal" in="SourceGraphic" in2="BackgroundImageFix" result="shape"/>
<feGaussianBlur stdDeviation="149.85" result="effect1_foregroundBlur_188_9481"/>
</filter>
<filter id="filter1_b_188_9481" x="-227.5" y="-202.526" width="1916.1" height="1401.75" filterUnits="userSpaceOnUse" color-interpolation-filters="sRGB">
<feFlood flood-opacity="0" result="BackgroundImageFix"/>
<feGaussianBlur in="BackgroundImageFix" stdDeviation="124.65"/>
<feComposite in2="SourceAlpha" operator="in" result="effect1_backgroundBlur_188_9481"/>
<feBlend mode="normal" in="SourceGraphic" in2="effect1_backgroundBlur_188_9481" result="shape"/>
</filter>
<filter id="filter2_f_188_9481" x="378.65" y="50.6003" width="688.5" height="101.25" filterUnits="userSpaceOnUse" color-interpolation-filters="sRGB">
<feFlood flood-opacity="0" result="BackgroundImageFix"/>
<feBlend mode="normal" in="SourceGraphic" in2="BackgroundImageFix" result="shape"/>
<feGaussianBlur stdDeviation="18.225" result="effect1_foregroundBlur_188_9481"/>
</filter>
<filter id="filter3_f_188_9481" x="366.5" y="66.8" width="688.5" height="81.0001" filterUnits="userSpaceOnUse" color-interpolation-filters="sRGB">
<feFlood flood-opacity="0" result="BackgroundImageFix"/>
<feBlend mode="normal" in="SourceGraphic" in2="BackgroundImageFix" result="shape"/>
<feGaussianBlur stdDeviation="18.225" result="effect1_foregroundBlur_188_9481"/>
</filter>
<linearGradient id="paint0_linear_188_9481" x1="710.75" y1="577.1" x2="710.75" y2="872.75" gradientUnits="userSpaceOnUse">
<stop stop-color="#F3CB63" stop-opacity="0"/>
<stop offset="1" stop-color="#F3C263"/>
</linearGradient>
<radialGradient id="paint1_radial_188_9481" cx="0" cy="0" r="1" gradientUnits="userSpaceOnUse" gradientTransform="translate(730.55 498.349) rotate(90) scale(451.575 708.75)">
<stop stop-color="#FF8A00"/>
<stop offset="1" stop-color="white" stop-opacity="0"/>
</radialGradient>
<radialGradient id="paint2_radial_188_9481" cx="0" cy="0" r="1" gradientUnits="userSpaceOnUse" gradientTransform="translate(735.049 1079.3) rotate(-90) scale(336.15 527.59)">
<stop stop-color="#FF8A00"/>
<stop offset="1" stop-color="white" stop-opacity="0"/>
</radialGradient>
<radialGradient id="paint3_radial_188_9481" cx="0" cy="0" r="1" gradientUnits="userSpaceOnUse" gradientTransform="translate(731.001 884.7) rotate(90) scale(172 244507)">
<stop stop-color="white"/>
<stop offset="0.505334" stop-color="white" stop-opacity="0"/>
</radialGradient>
<radialGradient id="paint4_radial_188_9481" cx="0" cy="0" r="1" gradientUnits="userSpaceOnUse" gradientTransform="translate(-42.75 496.838) scale(172 155342)">
<stop stop-color="white"/>
<stop offset="0.505334" stop-color="white" stop-opacity="0"/>
</radialGradient>
<radialGradient id="paint5_radial_188_9481" cx="0" cy="0" r="1" gradientUnits="userSpaceOnUse" gradientTransform="translate(1374.75 496.838) scale(172 155342)">
<stop stop-color="white"/>
<stop offset="0.505334" stop-color="white" stop-opacity="0"/>
</radialGradient>
<radialGradient id="paint6_radial_188_9481" cx="0" cy="0" r="1" gradientUnits="userSpaceOnUse" gradientTransform="translate(229.4 -18.4502) rotate(90) scale(172 72446.4)">
<stop stop-color="white"/>
<stop offset="0.505334" stop-color="white" stop-opacity="0"/>
</radialGradient>
<radialGradient id="paint7_radial_188_9481" cx="0" cy="0" r="1" gradientUnits="userSpaceOnUse" gradientTransform="translate(1156.61 -18.4502) rotate(90) scale(172 43189.2)">
<stop stop-color="white"/>
<stop offset="0.505334" stop-color="white" stop-opacity="0"/>
</radialGradient>
<radialGradient id="paint8_radial_188_9481" cx="0" cy="0" r="1" gradientUnits="userSpaceOnUse" gradientTransform="translate(751.251 101.225) rotate(90) scale(18.225 303.75)">
<stop stop-color="#FFC076"/>
<stop offset="1" stop-color="#FFC076" stop-opacity="0"/>
</radialGradient>
<radialGradient id="paint9_radial_188_9481" cx="0" cy="0" r="1" gradientUnits="userSpaceOnUse" gradientTransform="translate(722.9 101.225) rotate(90) scale(14.175 307.8)">
<stop stop-color="#FFC076"/>
<stop offset="1" stop-color="#FFC076" stop-opacity="0"/>
</radialGradient>
<radialGradient id="paint10_radial_188_9481" cx="0" cy="0" r="1" gradientUnits="userSpaceOnUse" gradientTransform="translate(739.1 97.1752) rotate(90) scale(18.225 303.75)">
<stop stop-color="#E8BA15"/>
<stop offset="1" stop-color="#E8BA15" stop-opacity="0"/>
</radialGradient>
<radialGradient id="paint11_radial_188_9481" cx="0" cy="0" r="1" gradientUnits="userSpaceOnUse" gradientTransform="translate(710.75 107.3) rotate(90) scale(4.05 307.8)">
<stop stop-color="#E8BA15"/>
<stop offset="1" stop-color="#E8BA15" stop-opacity="0"/>
</radialGradient>
<linearGradient id="paint12_linear_188_9481" x1="463.7" y1="50.6002" x2="560.9" y2="50.6002" gradientUnits="userSpaceOnUse">
<stop stop-color="#FAD053"/>
<stop offset="1" stop-color="#FAD053" stop-opacity="0"/>
</linearGradient>
<linearGradient id="paint13_linear_188_9481" x1="998.3" y1="50.6002" x2="901.1" y2="50.6002" gradientUnits="userSpaceOnUse">
<stop stop-color="#FAD053"/>
<stop offset="1" stop-color="#FAD053" stop-opacity="0"/>
</linearGradient>
</defs>
</svg>
