<svg width="595" height="99" viewBox="0 0 595 99" fill="none" xmlns="http://www.w3.org/2000/svg">
<g filter="url(#filter0_b_124_29933)">
<mask id="path-1-inside-1_124_29933" fill="white">
<path fill-rule="evenodd" clip-rule="evenodd" d="M0.875 98.4375L0.875 25.2302L38.9205 0L594.625 0V75.3192L559.764 98.4375L0.875 98.4375Z"/>
</mask>
<path fill-rule="evenodd" clip-rule="evenodd" d="M0.875 98.4375L0.875 25.2302L38.9205 0L594.625 0V75.3192L559.764 98.4375L0.875 98.4375Z" fill="black" fill-opacity="0.6"/>
<path d="M0.875 25.2302L0.097802 24.0582L-0.53125 24.4754V25.2302H0.875ZM0.875 98.4375H-0.53125L-0.53125 99.8438H0.875L0.875 98.4375ZM38.9205 0V-1.40625H38.4966L38.1433 -1.17197L38.9205 0ZM594.625 0L596.031 0V-1.40625H594.625V0ZM594.625 75.3192L595.402 76.4912L596.031 76.074V75.3192H594.625ZM559.764 98.4375V99.8437H560.188L560.541 99.6095L559.764 98.4375ZM-0.53125 25.2302L-0.53125 98.4375H2.28125L2.28125 25.2302H-0.53125ZM38.1433 -1.17197L0.097802 24.0582L1.6522 26.4021L39.6977 1.17197L38.1433 -1.17197ZM594.625 -1.40625L38.9205 -1.40625V1.40625L594.625 1.40625V-1.40625ZM596.031 75.3192V0L593.219 0V75.3192H596.031ZM560.541 99.6095L595.402 76.4912L593.848 74.1473L558.987 97.2655L560.541 99.6095ZM0.875 99.8438L559.764 99.8437V97.0312L0.875 97.0312L0.875 99.8438Z" fill="url(#paint0_radial_124_29933)" mask="url(#path-1-inside-1_124_29933)"/>
<path d="M0.875 25.2302L0.097802 24.0582L-0.53125 24.4754V25.2302H0.875ZM0.875 98.4375H-0.53125L-0.53125 99.8438H0.875L0.875 98.4375ZM38.9205 0V-1.40625H38.4966L38.1433 -1.17197L38.9205 0ZM594.625 0L596.031 0V-1.40625H594.625V0ZM594.625 75.3192L595.402 76.4912L596.031 76.074V75.3192H594.625ZM559.764 98.4375V99.8437H560.188L560.541 99.6095L559.764 98.4375ZM-0.53125 25.2302L-0.53125 98.4375H2.28125L2.28125 25.2302H-0.53125ZM38.1433 -1.17197L0.097802 24.0582L1.6522 26.4021L39.6977 1.17197L38.1433 -1.17197ZM594.625 -1.40625L38.9205 -1.40625V1.40625L594.625 1.40625V-1.40625ZM596.031 75.3192V0L593.219 0V75.3192H596.031ZM560.541 99.6095L595.402 76.4912L593.848 74.1473L558.987 97.2655L560.541 99.6095ZM0.875 99.8438L559.764 99.8437V97.0312L0.875 97.0312L0.875 99.8438Z" fill="#FFEF5A" fill-opacity="0.3" mask="url(#path-1-inside-1_124_29933)"/>
</g>
<g filter="url(#filter1_b_124_29933)">
<mask id="path-3-inside-2_124_29933" fill="white">
<path fill-rule="evenodd" clip-rule="evenodd" d="M12.125 87.1875L12.125 33.8937L46.2542 11.25L583.375 11.25V64.4118L550.923 87.1875L12.125 87.1875Z"/>
</mask>
<path fill-rule="evenodd" clip-rule="evenodd" d="M12.125 87.1875L12.125 33.8937L46.2542 11.25L583.375 11.25V64.4118L550.923 87.1875L12.125 87.1875Z" fill="black" fill-opacity="0.2"/>
<path d="M12.125 33.8937L11.3475 32.7219L10.7188 33.1391V33.8937H12.125ZM12.125 87.1875H10.7188V88.5938H12.125V87.1875ZM46.2542 11.25V9.84375H45.8301L45.4767 10.0782L46.2542 11.25ZM583.375 11.25H584.781V9.84375H583.375V11.25ZM583.375 64.4118L584.183 65.5629L584.781 65.1429V64.4118H583.375ZM550.923 87.1875V88.5937H551.368L551.731 88.3386L550.923 87.1875ZM10.7188 33.8937L10.7188 87.1875H13.5313L13.5313 33.8937H10.7188ZM45.4767 10.0782L11.3475 32.7219L12.9025 35.0655L47.0316 12.4218L45.4767 10.0782ZM583.375 9.84375L46.2542 9.84375V12.6562L583.375 12.6562V9.84375ZM584.781 64.4118V11.25H581.969V64.4118H584.781ZM551.731 88.3386L584.183 65.5629L582.567 63.2608L550.115 86.0364L551.731 88.3386ZM12.125 88.5938L550.923 88.5937V85.7812L12.125 85.7812V88.5938Z" fill="url(#paint1_radial_124_29933)" mask="url(#path-3-inside-2_124_29933)"/>
<path d="M12.125 33.8937L11.3475 32.7219L10.7188 33.1391V33.8937H12.125ZM12.125 87.1875H10.7188V88.5938H12.125V87.1875ZM46.2542 11.25V9.84375H45.8301L45.4767 10.0782L46.2542 11.25ZM583.375 11.25H584.781V9.84375H583.375V11.25ZM583.375 64.4118L584.183 65.5629L584.781 65.1429V64.4118H583.375ZM550.923 87.1875V88.5937H551.368L551.731 88.3386L550.923 87.1875ZM10.7188 33.8937L10.7188 87.1875H13.5313L13.5313 33.8937H10.7188ZM45.4767 10.0782L11.3475 32.7219L12.9025 35.0655L47.0316 12.4218L45.4767 10.0782ZM583.375 9.84375L46.2542 9.84375V12.6562L583.375 12.6562V9.84375ZM584.781 64.4118V11.25H581.969V64.4118H584.781ZM551.731 88.3386L584.183 65.5629L582.567 63.2608L550.115 86.0364L551.731 88.3386ZM12.125 88.5938L550.923 88.5937V85.7812L12.125 85.7812V88.5938Z" fill="#FFDB5A" fill-opacity="0.3" mask="url(#path-3-inside-2_124_29933)"/>
</g>
<defs>
<filter id="filter0_b_124_29933" x="-10.375" y="-11.25" width="616.25" height="120.938" filterUnits="userSpaceOnUse" color-interpolation-filters="sRGB">
<feFlood flood-opacity="0" result="BackgroundImageFix"/>
<feGaussianBlur in="BackgroundImageFix" stdDeviation="5.625"/>
<feComposite in2="SourceAlpha" operator="in" result="effect1_backgroundBlur_124_29933"/>
<feBlend mode="normal" in="SourceGraphic" in2="effect1_backgroundBlur_124_29933" result="shape"/>
</filter>
<filter id="filter1_b_124_29933" x="0.875" y="0" width="593.75" height="98.4375" filterUnits="userSpaceOnUse" color-interpolation-filters="sRGB">
<feFlood flood-opacity="0" result="BackgroundImageFix"/>
<feGaussianBlur in="BackgroundImageFix" stdDeviation="5.625"/>
<feComposite in2="SourceAlpha" operator="in" result="effect1_backgroundBlur_124_29933"/>
<feBlend mode="normal" in="SourceGraphic" in2="effect1_backgroundBlur_124_29933" result="shape"/>
</filter>
<radialGradient id="paint0_radial_124_29933" cx="0" cy="0" r="1" gradientUnits="userSpaceOnUse" gradientTransform="translate(297.75 -7.29283) rotate(90) scale(73.9397 445.985)">
<stop stop-color="#FF8A00"/>
<stop offset="1" stop-color="white" stop-opacity="0"/>
</radialGradient>
<radialGradient id="paint1_radial_124_29933" cx="0" cy="0" r="1" gradientUnits="userSpaceOnUse" gradientTransform="translate(237.04 -4.4773) rotate(91.6411) scale(67.0347 340.365)">
<stop stop-color="#FF8A00"/>
<stop offset="1" stop-color="white" stop-opacity="0"/>
</radialGradient>
</defs>
</svg>
