<svg width="594" height="99" viewBox="0 0 594 99" fill="none" xmlns="http://www.w3.org/2000/svg">
<g filter="url(#filter0_b_270_9504)">
<mask id="path-1-inside-1_270_9504" fill="white">
<path fill-rule="evenodd" clip-rule="evenodd" d="M0 98.4375L0 25.2302L38.0455 0L593.75 0V75.3192L558.889 98.4375L0 98.4375Z"/>
</mask>
<path fill-rule="evenodd" clip-rule="evenodd" d="M0 98.4375L0 25.2302L38.0455 0L593.75 0V75.3192L558.889 98.4375L0 98.4375Z" fill="black" fill-opacity="0.6"/>
<path d="M0 25.2302L-0.777198 24.0582L-1.40625 24.4754V25.2302H0ZM0 98.4375H-1.40625L-1.40625 99.8438H0L0 98.4375ZM38.0455 0V-1.40625H37.6216L37.2683 -1.17197L38.0455 0ZM593.75 0L595.156 0V-1.40625H593.75V0ZM593.75 75.3192L594.527 76.4912L595.156 76.074V75.3192H593.75ZM558.889 98.4375V99.8437H559.313L559.666 99.6095L558.889 98.4375ZM-1.40625 25.2302L-1.40625 98.4375H1.40625L1.40625 25.2302H-1.40625ZM37.2683 -1.17197L-0.777198 24.0582L0.777198 26.4021L38.8227 1.17197L37.2683 -1.17197ZM593.75 -1.40625L38.0455 -1.40625V1.40625L593.75 1.40625V-1.40625ZM595.156 75.3192V0L592.344 0V75.3192H595.156ZM559.666 99.6095L594.527 76.4912L592.973 74.1473L558.112 97.2655L559.666 99.6095ZM0 99.8438L558.889 99.8437V97.0312L0 97.0312L0 99.8438Z" fill="url(#paint0_radial_270_9504)" mask="url(#path-1-inside-1_270_9504)"/>
<path d="M0 25.2302L-0.777198 24.0582L-1.40625 24.4754V25.2302H0ZM0 98.4375H-1.40625L-1.40625 99.8438H0L0 98.4375ZM38.0455 0V-1.40625H37.6216L37.2683 -1.17197L38.0455 0ZM593.75 0L595.156 0V-1.40625H593.75V0ZM593.75 75.3192L594.527 76.4912L595.156 76.074V75.3192H593.75ZM558.889 98.4375V99.8437H559.313L559.666 99.6095L558.889 98.4375ZM-1.40625 25.2302L-1.40625 98.4375H1.40625L1.40625 25.2302H-1.40625ZM37.2683 -1.17197L-0.777198 24.0582L0.777198 26.4021L38.8227 1.17197L37.2683 -1.17197ZM593.75 -1.40625L38.0455 -1.40625V1.40625L593.75 1.40625V-1.40625ZM595.156 75.3192V0L592.344 0V75.3192H595.156ZM559.666 99.6095L594.527 76.4912L592.973 74.1473L558.112 97.2655L559.666 99.6095ZM0 99.8438L558.889 99.8437V97.0312L0 97.0312L0 99.8438Z" fill="#FFEA5A" fill-opacity="0.3" mask="url(#path-1-inside-1_270_9504)"/>
</g>
<g filter="url(#filter1_b_270_9504)">
<mask id="path-3-inside-2_270_9504" fill="white">
<path fill-rule="evenodd" clip-rule="evenodd" d="M11.25 87.1875L11.25 33.8937L45.3792 11.25L582.5 11.25V64.4118L550.048 87.1875L11.25 87.1875Z"/>
</mask>
<path fill-rule="evenodd" clip-rule="evenodd" d="M11.25 87.1875L11.25 33.8937L45.3792 11.25L582.5 11.25V64.4118L550.048 87.1875L11.25 87.1875Z" fill="url(#paint1_linear_270_9504)"/>
<path fill-rule="evenodd" clip-rule="evenodd" d="M11.25 87.1875L11.25 33.8937L45.3792 11.25L582.5 11.25V64.4118L550.048 87.1875L11.25 87.1875Z" fill="url(#paint2_radial_270_9504)" fill-opacity="0.6"/>
<path d="M11.25 33.8937L10.4725 32.7219L9.84375 33.1391V33.8937H11.25ZM11.25 87.1875H9.84375V88.5938H11.25V87.1875ZM45.3792 11.25V9.84375H44.9551L44.6017 10.0782L45.3792 11.25ZM582.5 11.25H583.906V9.84375H582.5V11.25ZM582.5 64.4118L583.308 65.5629L583.906 65.1429V64.4118H582.5ZM550.048 87.1875V88.5937H550.493L550.856 88.3386L550.048 87.1875ZM9.84375 33.8937L9.84375 87.1875H12.6563L12.6563 33.8937H9.84375ZM44.6017 10.0782L10.4725 32.7219L12.0275 35.0655L46.1566 12.4218L44.6017 10.0782ZM582.5 9.84375L45.3792 9.84375V12.6562L582.5 12.6562V9.84375ZM583.906 64.4118V11.25H581.094V64.4118H583.906ZM550.856 88.3386L583.308 65.5629L581.692 63.2608L549.24 86.0364L550.856 88.3386ZM11.25 88.5938L550.048 88.5937V85.7812L11.25 85.7812V88.5938Z" fill="url(#paint3_radial_270_9504)" mask="url(#path-3-inside-2_270_9504)"/>
<path d="M11.25 33.8937L10.4725 32.7219L9.84375 33.1391V33.8937H11.25ZM11.25 87.1875H9.84375V88.5938H11.25V87.1875ZM45.3792 11.25V9.84375H44.9551L44.6017 10.0782L45.3792 11.25ZM582.5 11.25H583.906V9.84375H582.5V11.25ZM582.5 64.4118L583.308 65.5629L583.906 65.1429V64.4118H582.5ZM550.048 87.1875V88.5937H550.493L550.856 88.3386L550.048 87.1875ZM9.84375 33.8937L9.84375 87.1875H12.6563L12.6563 33.8937H9.84375ZM44.6017 10.0782L10.4725 32.7219L12.0275 35.0655L46.1566 12.4218L44.6017 10.0782ZM582.5 9.84375L45.3792 9.84375V12.6562L582.5 12.6562V9.84375ZM583.906 64.4118V11.25H581.094V64.4118H583.906ZM550.856 88.3386L583.308 65.5629L581.692 63.2608L549.24 86.0364L550.856 88.3386ZM11.25 88.5938L550.048 88.5937V85.7812L11.25 85.7812V88.5938Z" fill="#FFEA5A" fill-opacity="0.3" mask="url(#path-3-inside-2_270_9504)"/>
</g>
<defs>
<filter id="filter0_b_270_9504" x="-11.25" y="-11.25" width="616.25" height="120.938" filterUnits="userSpaceOnUse" color-interpolation-filters="sRGB">
<feFlood flood-opacity="0" result="BackgroundImageFix"/>
<feGaussianBlur in="BackgroundImageFix" stdDeviation="5.625"/>
<feComposite in2="SourceAlpha" operator="in" result="effect1_backgroundBlur_270_9504"/>
<feBlend mode="normal" in="SourceGraphic" in2="effect1_backgroundBlur_270_9504" result="shape"/>
</filter>
<filter id="filter1_b_270_9504" x="0" y="0" width="593.75" height="98.4375" filterUnits="userSpaceOnUse" color-interpolation-filters="sRGB">
<feFlood flood-opacity="0" result="BackgroundImageFix"/>
<feGaussianBlur in="BackgroundImageFix" stdDeviation="5.625"/>
<feComposite in2="SourceAlpha" operator="in" result="effect1_backgroundBlur_270_9504"/>
<feBlend mode="normal" in="SourceGraphic" in2="effect1_backgroundBlur_270_9504" result="shape"/>
</filter>
<radialGradient id="paint0_radial_270_9504" cx="0" cy="0" r="1" gradientUnits="userSpaceOnUse" gradientTransform="translate(296.875 -14.1256) rotate(90) scale(36.6382 220.992)">
<stop stop-color="#FF8A00"/>
<stop offset="1" stop-color="white" stop-opacity="0"/>
</radialGradient>
<linearGradient id="paint1_linear_270_9504" x1="11.25" y1="49.2188" x2="582.5" y2="49.2187" gradientUnits="userSpaceOnUse">
<stop stop-color="#FFDB67"/>
<stop offset="1" stop-color="#99833E"/>
</linearGradient>
<radialGradient id="paint2_radial_270_9504" cx="0" cy="0" r="1" gradientUnits="userSpaceOnUse" gradientTransform="translate(296.875 -1.40625) rotate(90) scale(88.5937 666.458)">
<stop stop-color="#FAFF00"/>
<stop offset="0.568159" stop-color="white" stop-opacity="0"/>
</radialGradient>
<radialGradient id="paint3_radial_270_9504" cx="0" cy="0" r="1" gradientUnits="userSpaceOnUse" gradientTransform="translate(283.892 -4.4773) rotate(90) scale(33.4978 206.175)">
<stop stop-color="#FF8A00"/>
<stop offset="1" stop-color="white" stop-opacity="0"/>
</radialGradient>
</defs>
</svg>
